<svg width="136" height="31" viewBox="0 0 136 31" fill="none" xmlns="http://www.w3.org/2000/svg">
<path d="M52.65 24H48.1L42.5 15.9V24H38.5V6.5H42.5V14.1L47.85 6.5H52.4L46.5 15.025L52.65 24ZM54.0244 10V6.5H57.7744V10H54.0244ZM54.0244 24V11.5H57.7744V24H54.0244ZM67.5186 11.15C68.7019 11.15 69.6602 11.5917 70.3936 12.475C71.1436 13.3417 71.5186 14.5417 71.5186 16.075V24H67.7686V16.4C67.7686 15.8 67.6102 15.35 67.2936 15.05C66.9936 14.75 66.5936 14.6 66.0936 14.6C64.8769 14.6 64.2686 15.3 64.2686 16.7V24H60.5186V11.5H64.2686V12.65C64.9186 11.65 66.0019 11.15 67.5186 11.15ZM84.6463 22.45C83.363 23.7167 81.7963 24.35 79.9463 24.35C78.0963 24.35 76.5296 23.7167 75.2463 22.45C73.963 21.1667 73.3213 19.6 73.3213 17.75C73.3213 15.9 73.963 14.3417 75.2463 13.075C76.5296 11.7917 78.0963 11.15 79.9463 11.15C81.7963 11.15 83.363 11.7917 84.6463 13.075C85.9296 14.3417 86.5713 15.9 86.5713 17.75C86.5713 19.6 85.9296 21.1667 84.6463 22.45ZM77.8963 19.875C78.4463 20.425 79.1296 20.7 79.9463 20.7C80.763 20.7 81.4463 20.425 81.9963 19.875C82.5463 19.325 82.8213 18.6167 82.8213 17.75C82.8213 16.8833 82.5463 16.175 81.9963 15.625C81.4463 15.075 80.763 14.8 79.9463 14.8C79.1296 14.8 78.4463 15.075 77.8963 15.625C77.3463 16.175 77.0713 16.8833 77.0713 17.75C77.0713 18.6167 77.3463 19.325 77.8963 19.875ZM90.1674 12.4C91.1674 11.5667 92.4007 11.15 93.8674 11.15C95.3341 11.15 96.5674 11.5833 97.5674 12.45C98.5674 13.3 99.0674 14.525 99.0674 16.125V24H95.4174V23.025C94.6507 23.9083 93.5757 24.35 92.1924 24.35C91.0257 24.35 90.0424 24.0083 89.2424 23.325C88.459 22.6417 88.0674 21.6833 88.0674 20.45C88.0674 19.2167 88.459 18.2583 89.2424 17.575C90.0424 16.8917 91.0257 16.55 92.1924 16.55C93.4924 16.55 94.5674 16.8667 95.4174 17.5V16.375C95.4174 15.1917 94.9007 14.6 93.8674 14.6C93.3674 14.6 92.984 14.7167 92.7174 14.95C92.4507 15.1833 92.3174 15.4917 92.3174 15.875H88.6674C88.6674 14.3917 89.1674 13.2333 90.1674 12.4ZM93.5174 21.7C94.1174 21.7 94.584 21.5833 94.9174 21.35C95.2507 21.1167 95.4174 20.8167 95.4174 20.45C95.4174 20.0667 95.2507 19.7667 94.9174 19.55C94.584 19.3167 94.1174 19.2 93.5174 19.2C92.9674 19.2 92.5424 19.3167 92.2424 19.55C91.959 19.7667 91.8174 20.0667 91.8174 20.45C91.8174 20.8333 91.959 21.1417 92.2424 21.375C92.5424 21.5917 92.9674 21.7 93.5174 21.7ZM105.235 13.475C105.435 12.7583 105.827 12.2083 106.41 11.825C106.994 11.4417 107.685 11.25 108.485 11.25V15.5C107.619 15.3667 106.86 15.5083 106.21 15.925C105.56 16.3417 105.235 17.0667 105.235 18.1V24H101.485V11.5H105.235V13.475ZM113.159 19.25C113.576 20.6333 114.551 21.325 116.084 21.325C116.534 21.325 116.959 21.2417 117.359 21.075C117.759 20.8917 118.051 20.6583 118.234 20.375L121.884 20.35C121.484 21.65 120.768 22.6417 119.734 23.325C118.701 24.0083 117.468 24.35 116.034 24.35C114.001 24.35 112.359 23.725 111.109 22.475C109.859 21.225 109.234 19.65 109.234 17.75C109.234 15.8667 109.859 14.3 111.109 13.05C112.376 11.7833 113.984 11.15 115.934 11.15C117.751 11.15 119.251 11.775 120.434 13.025C121.634 14.275 122.234 15.85 122.234 17.75C122.234 18.2833 122.184 18.7833 122.084 19.25H113.159ZM113.134 16.4H118.509C118.143 15.1167 117.276 14.475 115.909 14.475C114.476 14.475 113.551 15.1167 113.134 16.4ZM125.788 12.4C126.788 11.5667 128.021 11.15 129.488 11.15C130.954 11.15 132.188 11.5833 133.188 12.45C134.188 13.3 134.688 14.525 134.688 16.125V24H131.038V23.025C130.271 23.9083 129.196 24.35 127.813 24.35C126.646 24.35 125.663 24.0083 124.863 23.325C124.079 22.6417 123.688 21.6833 123.688 20.45C123.688 19.2167 124.079 18.2583 124.863 17.575C125.663 16.8917 126.646 16.55 127.813 16.55C129.113 16.55 130.188 16.8667 131.038 17.5V16.375C131.038 15.1917 130.521 14.6 129.488 14.6C128.988 14.6 128.604 14.7167 128.338 14.95C128.071 15.1833 127.938 15.4917 127.938 15.875H124.288C124.288 14.3917 124.788 13.2333 125.788 12.4ZM129.138 21.7C129.738 21.7 130.204 21.5833 130.538 21.35C130.871 21.1167 131.038 20.8167 131.038 20.45C131.038 20.0667 130.871 19.7667 130.538 19.55C130.204 19.3167 129.738 19.2 129.138 19.2C128.588 19.2 128.163 19.3167 127.863 19.55C127.579 19.7667 127.438 20.0667 127.438 20.45C127.438 20.8333 127.579 21.1417 127.863 21.375C128.163 21.5917 128.588 21.7 129.138 21.7Z" fill="white"/>
<path d="M13.2656 9.49121C13.2656 8.09546 12.1301 6.95996 10.7344 6.95996C9.33863 6.95996 8.20312 8.09546 8.20312 9.49121C8.20312 10.887 9.33863 12.0225 10.7344 12.0225C12.1301 12.0225 13.2656 10.887 13.2656 9.49121ZM9.14062 9.49121C9.14062 8.6124 9.85556 7.89746 10.7344 7.89746C11.6132 7.89746 12.3281 8.6124 12.3281 9.49121C12.3281 10.37 11.6132 11.085 10.7344 11.085C9.85556 11.085 9.14062 10.37 9.14062 9.49121Z" fill="white"/>
<path d="M6.64445 15.5524C7.24675 15.2455 7.69347 14.7225 7.90239 14.0796C8.11126 13.4367 8.05731 12.751 7.75042 12.1487C7.44353 11.5464 6.92045 11.0997 6.27761 10.8908C5.63467 10.6818 4.94894 10.7358 4.34669 11.0427C3.74439 11.3496 3.29767 11.8727 3.08875 12.5155C2.87987 13.1584 2.93383 13.8442 3.24072 14.4465C3.54761 15.0488 4.07069 15.4955 4.71353 15.7044C4.97097 15.788 5.2352 15.8295 5.49822 15.8295C5.89211 15.8296 6.28328 15.7365 6.64445 15.5524ZM5.00322 14.8128C4.5985 14.6813 4.2692 14.4001 4.07598 14.0209C3.88276 13.6417 3.84878 13.21 3.98031 12.8053C4.1118 12.4006 4.39305 12.0713 4.77222 11.878C4.99961 11.7622 5.24584 11.7036 5.49386 11.7036C5.65942 11.7036 5.82583 11.7297 5.98787 11.7824C6.39259 11.9139 6.72189 12.1951 6.91511 12.5743C7.10833 12.9535 7.14231 13.3852 7.01078 13.7899C6.8793 14.1946 6.59805 14.5239 6.21887 14.7171C5.83965 14.9103 5.40794 14.9443 5.00322 14.8128Z" fill="white"/>
<path d="M6.00882 21.5042C6.45713 21.8299 6.97744 21.9867 7.49321 21.9867C8.27658 21.9867 9.04964 21.625 9.54427 20.9442C9.94167 20.3972 10.1023 19.7283 9.99647 19.0605C9.89068 18.3927 9.53124 17.8061 8.98425 17.4088C8.43727 17.0114 7.76841 16.8507 7.10053 16.9566C6.43275 17.0623 5.84616 17.4218 5.4488 17.9687C4.62853 19.0978 4.87974 20.6838 6.00882 21.5042ZM6.20733 18.5198C6.4575 18.1754 6.82683 17.9491 7.24725 17.8825C7.33168 17.8691 7.4161 17.8625 7.49996 17.8625C7.83371 17.8625 8.15808 17.9673 8.43328 18.1673C9.14419 18.6838 9.30235 19.6823 8.78583 20.3932C8.26932 21.1041 7.27078 21.2623 6.55988 20.7458C5.84897 20.2292 5.69082 19.2307 6.20733 18.5198Z" fill="white"/>
<path d="M13.9755 21.9866C14.4913 21.9866 15.0117 21.8298 15.4599 21.5042C16.589 20.6838 16.8402 19.0978 16.0199 17.9687C15.6225 17.4218 15.0359 17.0623 14.3682 16.9565C13.7004 16.8508 13.0314 17.0114 12.4845 17.4087C11.9375 17.8061 11.578 18.3927 11.4722 19.0605C11.3664 19.7282 11.5271 20.3972 11.9244 20.9442C12.4192 21.6251 13.192 21.9866 13.9755 21.9866ZM13.0355 18.1672C13.3798 17.917 13.8008 17.8158 14.2215 17.8825C14.6419 17.9491 15.0112 18.1754 15.2614 18.5198C15.7779 19.2307 15.6197 20.2292 14.9088 20.7457C14.1979 21.2622 13.1993 21.1041 12.6829 20.3932C12.1664 19.6823 12.3246 18.6837 13.0355 18.1672Z" fill="white"/>
<path d="M15.1912 10.8907C14.5483 11.0996 14.0252 11.5463 13.7184 12.1486C13.4115 12.7509 13.3575 13.4367 13.5664 14.0796C13.7753 14.7224 14.2221 15.2455 14.8243 15.5524C15.1855 15.7364 15.5766 15.8295 15.9706 15.8295C16.2336 15.8295 16.4979 15.788 16.7553 15.7044C17.3982 15.4955 17.9212 15.0487 18.2281 14.4464C18.535 13.8442 18.5889 13.1584 18.3801 12.5155C18.1711 11.8726 17.7244 11.3496 17.1221 11.0427C16.5199 10.7358 15.8341 10.6819 15.1912 10.8907ZM16.6965 11.878C17.0757 12.0712 17.357 12.4005 17.4884 12.8053C17.62 13.21 17.586 13.6417 17.3928 14.0209C17.1996 14.4 16.8703 14.6813 16.4655 14.8128C16.0608 14.9443 15.6291 14.9103 15.2499 14.7171C14.8708 14.5239 14.5895 14.1946 14.458 13.7899C14.3265 13.3851 14.3605 12.9534 14.5537 12.5743C14.7469 12.1951 15.0762 11.9138 15.4809 11.7824C15.643 11.7297 15.8093 11.7036 15.9749 11.7036C16.2229 11.7036 16.4691 11.7621 16.6965 11.878Z" fill="white"/>
<path d="M12.3418 15C12.3418 14.1137 11.6208 13.3926 10.7344 13.3926C9.84803 13.3926 9.12695 14.1137 9.12695 15C9.12695 15.8864 9.84803 16.6075 10.7344 16.6075C11.6208 16.6075 12.3418 15.8864 12.3418 15ZM10.0645 15C10.0645 14.6306 10.365 14.3301 10.7344 14.3301C11.1038 14.3301 11.4043 14.6306 11.4043 15C11.4043 15.3694 11.1038 15.67 10.7344 15.67C10.365 15.67 10.0645 15.3694 10.0645 15Z" fill="white"/>
<path d="M23.8627 23.7073C23.3326 23.1772 22.6279 22.8853 21.8783 22.8853C21.1287 22.8853 20.424 23.1772 19.8939 23.7073C19.1913 24.4099 18.2571 24.7969 17.2634 24.7969H15.1344C16.3078 24.2693 17.3877 23.5273 18.3247 22.5903C20.3522 20.5629 21.4688 17.8673 21.4688 15C21.4688 12.9028 20.8638 10.871 19.7192 9.12427C19.5774 8.9077 19.2868 8.84719 19.0702 8.98908C18.8537 9.13097 18.7932 9.42155 18.9351 9.63806C19.9793 11.2317 20.5312 13.0859 20.5312 15C20.5312 20.402 16.1364 24.7969 10.7344 24.7969C5.33236 24.7969 0.9375 20.402 0.9375 15C0.9375 9.59798 5.33236 5.20312 10.7344 5.20312C12.6517 5.20312 14.5086 5.75681 16.104 6.80438C16.3204 6.9465 16.611 6.88627 16.7531 6.6698C16.8952 6.45338 16.835 6.1628 16.6185 6.02067C14.8698 4.87252 12.8351 4.26562 10.7344 4.26562C7.86713 4.26562 5.17148 5.38219 3.14405 7.40967C1.11661 9.43716 0 12.1328 0 15C0 17.8673 1.11656 20.5629 3.14405 22.5904C5.17148 24.6178 7.86713 25.7344 10.7344 25.7344H17.2634C18.5075 25.7344 19.6771 25.2499 20.5568 24.3702C20.9098 24.0172 21.3791 23.8228 21.8783 23.8228C22.3775 23.8228 22.8468 24.0172 23.1998 24.3702C23.3828 24.5532 23.6796 24.5532 23.8627 24.3702C24.0458 24.1871 24.0458 23.8903 23.8627 23.7073Z" fill="white"/>
<path d="M17.9967 8.2134C18.12 8.2134 18.2409 8.16371 18.3281 8.07652C18.4153 7.98887 18.4655 7.8684 18.4655 7.74512C18.4655 7.62137 18.4153 7.5009 18.3281 7.41324C18.2409 7.32605 18.12 7.27637 17.9967 7.27637C17.8734 7.27637 17.7525 7.32605 17.6653 7.41324C17.5781 7.5009 17.528 7.62137 17.528 7.74512C17.528 7.8684 17.5781 7.98934 17.6653 8.07652C17.7525 8.16371 17.8734 8.2134 17.9967 8.2134Z" fill="white"/>
</svg>
